<mxfile host="app.diagrams.net" agent="Mozilla/5.0 (Windows NT 10.0; Win64; x64; rv:134.0) Gecko/20100101 Firefox/134.0" version="26.0.2">
  <diagram name="Page-1" id="_NKyA_XWjFuAoNH714jr">
    <mxGraphModel dx="2265" dy="1728" grid="1" gridSize="10" guides="1" tooltips="1" connect="1" arrows="1" fold="1" page="1" pageScale="1" pageWidth="827" pageHeight="1169" math="1" shadow="0">
      <root>
        <mxCell id="0" />
        <mxCell id="1" parent="0" />
        <mxCell id="nOmz34Z4Xu-gI0Pr4fBR-51" value="" style="shape=table;startSize=0;container=1;collapsible=0;childLayout=tableLayout;" vertex="1" parent="1">
          <mxGeometry x="290" y="50" width="350" height="350" as="geometry" />
        </mxCell>
        <mxCell id="nOmz34Z4Xu-gI0Pr4fBR-52" value="" style="shape=tableRow;horizontal=0;startSize=0;swimlaneHead=0;swimlaneBody=0;strokeColor=inherit;top=0;left=0;bottom=0;right=0;collapsible=0;dropTarget=0;fillColor=none;points=[[0,0.5],[1,0.5]];portConstraint=eastwest;" vertex="1" parent="nOmz34Z4Xu-gI0Pr4fBR-51">
          <mxGeometry width="350" height="30" as="geometry" />
        </mxCell>
        <mxCell id="nOmz34Z4Xu-gI0Pr4fBR-53" value="" style="shape=partialRectangle;html=1;whiteSpace=wrap;connectable=0;strokeColor=inherit;overflow=hidden;fillColor=none;top=0;left=0;bottom=0;right=0;pointerEvents=1;" vertex="1" parent="nOmz34Z4Xu-gI0Pr4fBR-52">
          <mxGeometry width="27" height="30" as="geometry">
            <mxRectangle width="27" height="30" as="alternateBounds" />
          </mxGeometry>
        </mxCell>
        <mxCell id="nOmz34Z4Xu-gI0Pr4fBR-54" value="\(\gamma_0\)" style="shape=partialRectangle;html=1;whiteSpace=wrap;connectable=0;strokeColor=inherit;overflow=hidden;fillColor=none;top=0;left=0;bottom=0;right=0;pointerEvents=1;" vertex="1" parent="nOmz34Z4Xu-gI0Pr4fBR-52">
          <mxGeometry x="27" width="83" height="30" as="geometry">
            <mxRectangle width="83" height="30" as="alternateBounds" />
          </mxGeometry>
        </mxCell>
        <mxCell id="nOmz34Z4Xu-gI0Pr4fBR-55" value="\(\gamma_1\)" style="shape=partialRectangle;html=1;whiteSpace=wrap;connectable=0;strokeColor=inherit;overflow=hidden;fillColor=none;top=0;left=0;bottom=0;right=0;pointerEvents=1;" vertex="1" parent="nOmz34Z4Xu-gI0Pr4fBR-52">
          <mxGeometry x="110" width="80" height="30" as="geometry">
            <mxRectangle width="80" height="30" as="alternateBounds" />
          </mxGeometry>
        </mxCell>
        <mxCell id="nOmz34Z4Xu-gI0Pr4fBR-56" value="\(\gamma_2 \)" style="shape=partialRectangle;html=1;whiteSpace=wrap;connectable=0;strokeColor=inherit;overflow=hidden;fillColor=none;top=0;left=0;bottom=0;right=0;pointerEvents=1;" vertex="1" parent="nOmz34Z4Xu-gI0Pr4fBR-52">
          <mxGeometry x="190" width="80" height="30" as="geometry">
            <mxRectangle width="80" height="30" as="alternateBounds" />
          </mxGeometry>
        </mxCell>
        <mxCell id="nOmz34Z4Xu-gI0Pr4fBR-57" value="\( \gamma_3\)" style="shape=partialRectangle;html=1;whiteSpace=wrap;connectable=0;strokeColor=inherit;overflow=hidden;fillColor=none;top=0;left=0;bottom=0;right=0;pointerEvents=1;" vertex="1" parent="nOmz34Z4Xu-gI0Pr4fBR-52">
          <mxGeometry x="270" width="80" height="30" as="geometry">
            <mxRectangle width="80" height="30" as="alternateBounds" />
          </mxGeometry>
        </mxCell>
        <mxCell id="nOmz34Z4Xu-gI0Pr4fBR-58" value="" style="shape=tableRow;horizontal=0;startSize=0;swimlaneHead=0;swimlaneBody=0;strokeColor=inherit;top=0;left=0;bottom=0;right=0;collapsible=0;dropTarget=0;fillColor=none;points=[[0,0.5],[1,0.5]];portConstraint=eastwest;" vertex="1" parent="nOmz34Z4Xu-gI0Pr4fBR-51">
          <mxGeometry y="30" width="350" height="80" as="geometry" />
        </mxCell>
        <mxCell id="nOmz34Z4Xu-gI0Pr4fBR-59" value="\(\gamma_0\)" style="shape=partialRectangle;html=1;whiteSpace=wrap;connectable=0;strokeColor=inherit;overflow=hidden;fillColor=none;top=0;left=0;bottom=0;right=0;pointerEvents=1;" vertex="1" parent="nOmz34Z4Xu-gI0Pr4fBR-58">
          <mxGeometry width="27" height="80" as="geometry">
            <mxRectangle width="27" height="80" as="alternateBounds" />
          </mxGeometry>
        </mxCell>
        <mxCell id="nOmz34Z4Xu-gI0Pr4fBR-60" value="\( \gamma_0\wedge \gamma_0\)" style="shape=partialRectangle;html=1;whiteSpace=wrap;connectable=0;strokeColor=inherit;overflow=hidden;fillColor=none;top=0;left=0;bottom=0;right=0;pointerEvents=1;" vertex="1" parent="nOmz34Z4Xu-gI0Pr4fBR-58">
          <mxGeometry x="27" width="83" height="80" as="geometry">
            <mxRectangle width="83" height="80" as="alternateBounds" />
          </mxGeometry>
        </mxCell>
        <mxCell id="nOmz34Z4Xu-gI0Pr4fBR-61" value="\( \gamma_0\wedge \gamma_1\)" style="shape=partialRectangle;html=1;whiteSpace=wrap;connectable=0;strokeColor=inherit;overflow=hidden;fillColor=none;top=0;left=0;bottom=0;right=0;pointerEvents=1;" vertex="1" parent="nOmz34Z4Xu-gI0Pr4fBR-58">
          <mxGeometry x="110" width="80" height="80" as="geometry">
            <mxRectangle width="80" height="80" as="alternateBounds" />
          </mxGeometry>
        </mxCell>
        <mxCell id="nOmz34Z4Xu-gI0Pr4fBR-62" value="\( \gamma_0\wedge \gamma_2\)" style="shape=partialRectangle;html=1;whiteSpace=wrap;connectable=0;strokeColor=inherit;overflow=hidden;fillColor=none;top=0;left=0;bottom=0;right=0;pointerEvents=1;" vertex="1" parent="nOmz34Z4Xu-gI0Pr4fBR-58">
          <mxGeometry x="190" width="80" height="80" as="geometry">
            <mxRectangle width="80" height="80" as="alternateBounds" />
          </mxGeometry>
        </mxCell>
        <mxCell id="nOmz34Z4Xu-gI0Pr4fBR-63" value="\( \gamma_0\wedge \gamma_3\)" style="shape=partialRectangle;html=1;whiteSpace=wrap;connectable=0;strokeColor=inherit;overflow=hidden;fillColor=none;top=0;left=0;bottom=0;right=0;pointerEvents=1;" vertex="1" parent="nOmz34Z4Xu-gI0Pr4fBR-58">
          <mxGeometry x="270" width="80" height="80" as="geometry">
            <mxRectangle width="80" height="80" as="alternateBounds" />
          </mxGeometry>
        </mxCell>
        <mxCell id="nOmz34Z4Xu-gI0Pr4fBR-64" value="" style="shape=tableRow;horizontal=0;startSize=0;swimlaneHead=0;swimlaneBody=0;strokeColor=inherit;top=0;left=0;bottom=0;right=0;collapsible=0;dropTarget=0;fillColor=none;points=[[0,0.5],[1,0.5]];portConstraint=eastwest;" vertex="1" parent="nOmz34Z4Xu-gI0Pr4fBR-51">
          <mxGeometry y="110" width="350" height="80" as="geometry" />
        </mxCell>
        <mxCell id="nOmz34Z4Xu-gI0Pr4fBR-65" value="\(\gamma_1\)" style="shape=partialRectangle;html=1;whiteSpace=wrap;connectable=0;strokeColor=inherit;overflow=hidden;fillColor=none;top=0;left=0;bottom=0;right=0;pointerEvents=1;" vertex="1" parent="nOmz34Z4Xu-gI0Pr4fBR-64">
          <mxGeometry width="27" height="80" as="geometry">
            <mxRectangle width="27" height="80" as="alternateBounds" />
          </mxGeometry>
        </mxCell>
        <mxCell id="nOmz34Z4Xu-gI0Pr4fBR-66" value="\( \gamma_1\wedge \gamma_0\)" style="shape=partialRectangle;html=1;whiteSpace=wrap;connectable=0;strokeColor=inherit;overflow=hidden;fillColor=none;top=0;left=0;bottom=0;right=0;pointerEvents=1;" vertex="1" parent="nOmz34Z4Xu-gI0Pr4fBR-64">
          <mxGeometry x="27" width="83" height="80" as="geometry">
            <mxRectangle width="83" height="80" as="alternateBounds" />
          </mxGeometry>
        </mxCell>
        <mxCell id="nOmz34Z4Xu-gI0Pr4fBR-67" value="\( \gamma_1\wedge \gamma_1\)" style="shape=partialRectangle;html=1;whiteSpace=wrap;connectable=0;strokeColor=inherit;overflow=hidden;fillColor=none;top=0;left=0;bottom=0;right=0;pointerEvents=1;" vertex="1" parent="nOmz34Z4Xu-gI0Pr4fBR-64">
          <mxGeometry x="110" width="80" height="80" as="geometry">
            <mxRectangle width="80" height="80" as="alternateBounds" />
          </mxGeometry>
        </mxCell>
        <mxCell id="nOmz34Z4Xu-gI0Pr4fBR-68" value="\( \gamma_1\wedge \gamma_2\)" style="shape=partialRectangle;html=1;whiteSpace=wrap;connectable=0;strokeColor=inherit;overflow=hidden;fillColor=none;top=0;left=0;bottom=0;right=0;pointerEvents=1;" vertex="1" parent="nOmz34Z4Xu-gI0Pr4fBR-64">
          <mxGeometry x="190" width="80" height="80" as="geometry">
            <mxRectangle width="80" height="80" as="alternateBounds" />
          </mxGeometry>
        </mxCell>
        <mxCell id="nOmz34Z4Xu-gI0Pr4fBR-69" value="\( \gamma_1\wedge \gamma_3\)" style="shape=partialRectangle;html=1;whiteSpace=wrap;connectable=0;strokeColor=inherit;overflow=hidden;fillColor=none;top=0;left=0;bottom=0;right=0;pointerEvents=1;" vertex="1" parent="nOmz34Z4Xu-gI0Pr4fBR-64">
          <mxGeometry x="270" width="80" height="80" as="geometry">
            <mxRectangle width="80" height="80" as="alternateBounds" />
          </mxGeometry>
        </mxCell>
        <mxCell id="nOmz34Z4Xu-gI0Pr4fBR-70" value="" style="shape=tableRow;horizontal=0;startSize=0;swimlaneHead=0;swimlaneBody=0;strokeColor=inherit;top=0;left=0;bottom=0;right=0;collapsible=0;dropTarget=0;fillColor=none;points=[[0,0.5],[1,0.5]];portConstraint=eastwest;" vertex="1" parent="nOmz34Z4Xu-gI0Pr4fBR-51">
          <mxGeometry y="190" width="350" height="80" as="geometry" />
        </mxCell>
        <mxCell id="nOmz34Z4Xu-gI0Pr4fBR-71" value="\(\gamma_2 \)" style="shape=partialRectangle;html=1;whiteSpace=wrap;connectable=0;strokeColor=inherit;overflow=hidden;fillColor=none;top=0;left=0;bottom=0;right=0;pointerEvents=1;" vertex="1" parent="nOmz34Z4Xu-gI0Pr4fBR-70">
          <mxGeometry width="27" height="80" as="geometry">
            <mxRectangle width="27" height="80" as="alternateBounds" />
          </mxGeometry>
        </mxCell>
        <mxCell id="nOmz34Z4Xu-gI0Pr4fBR-72" value="\( \gamma_2\wedge \gamma_0\)" style="shape=partialRectangle;html=1;whiteSpace=wrap;connectable=0;strokeColor=inherit;overflow=hidden;fillColor=none;top=0;left=0;bottom=0;right=0;pointerEvents=1;" vertex="1" parent="nOmz34Z4Xu-gI0Pr4fBR-70">
          <mxGeometry x="27" width="83" height="80" as="geometry">
            <mxRectangle width="83" height="80" as="alternateBounds" />
          </mxGeometry>
        </mxCell>
        <mxCell id="nOmz34Z4Xu-gI0Pr4fBR-73" value="&lt;div&gt;\( \gamma_2\wedge \gamma_1\)&lt;/div&gt;" style="shape=partialRectangle;html=1;whiteSpace=wrap;connectable=0;strokeColor=inherit;overflow=hidden;fillColor=none;top=0;left=0;bottom=0;right=0;pointerEvents=1;" vertex="1" parent="nOmz34Z4Xu-gI0Pr4fBR-70">
          <mxGeometry x="110" width="80" height="80" as="geometry">
            <mxRectangle width="80" height="80" as="alternateBounds" />
          </mxGeometry>
        </mxCell>
        <mxCell id="nOmz34Z4Xu-gI0Pr4fBR-74" value="\( \gamma_2\wedge \gamma_2\)" style="shape=partialRectangle;html=1;whiteSpace=wrap;connectable=0;strokeColor=inherit;overflow=hidden;fillColor=none;top=0;left=0;bottom=0;right=0;pointerEvents=1;" vertex="1" parent="nOmz34Z4Xu-gI0Pr4fBR-70">
          <mxGeometry x="190" width="80" height="80" as="geometry">
            <mxRectangle width="80" height="80" as="alternateBounds" />
          </mxGeometry>
        </mxCell>
        <mxCell id="nOmz34Z4Xu-gI0Pr4fBR-75" value="\( \gamma_2\wedge \gamma_3\)" style="shape=partialRectangle;html=1;whiteSpace=wrap;connectable=0;strokeColor=inherit;overflow=hidden;fillColor=none;top=0;left=0;bottom=0;right=0;pointerEvents=1;" vertex="1" parent="nOmz34Z4Xu-gI0Pr4fBR-70">
          <mxGeometry x="270" width="80" height="80" as="geometry">
            <mxRectangle width="80" height="80" as="alternateBounds" />
          </mxGeometry>
        </mxCell>
        <mxCell id="nOmz34Z4Xu-gI0Pr4fBR-76" value="" style="shape=tableRow;horizontal=0;startSize=0;swimlaneHead=0;swimlaneBody=0;strokeColor=inherit;top=0;left=0;bottom=0;right=0;collapsible=0;dropTarget=0;fillColor=none;points=[[0,0.5],[1,0.5]];portConstraint=eastwest;" vertex="1" parent="nOmz34Z4Xu-gI0Pr4fBR-51">
          <mxGeometry y="270" width="350" height="80" as="geometry" />
        </mxCell>
        <mxCell id="nOmz34Z4Xu-gI0Pr4fBR-77" value="\( \gamma_3\)" style="shape=partialRectangle;html=1;whiteSpace=wrap;connectable=0;strokeColor=inherit;overflow=hidden;fillColor=none;top=0;left=0;bottom=0;right=0;pointerEvents=1;" vertex="1" parent="nOmz34Z4Xu-gI0Pr4fBR-76">
          <mxGeometry width="27" height="80" as="geometry">
            <mxRectangle width="27" height="80" as="alternateBounds" />
          </mxGeometry>
        </mxCell>
        <mxCell id="nOmz34Z4Xu-gI0Pr4fBR-78" value="\( \gamma_3\wedge \gamma_0\)" style="shape=partialRectangle;html=1;whiteSpace=wrap;connectable=0;strokeColor=inherit;overflow=hidden;fillColor=none;top=0;left=0;bottom=0;right=0;pointerEvents=1;" vertex="1" parent="nOmz34Z4Xu-gI0Pr4fBR-76">
          <mxGeometry x="27" width="83" height="80" as="geometry">
            <mxRectangle width="83" height="80" as="alternateBounds" />
          </mxGeometry>
        </mxCell>
        <mxCell id="nOmz34Z4Xu-gI0Pr4fBR-79" value="\( \gamma_3\wedge \gamma_1\)" style="shape=partialRectangle;html=1;whiteSpace=wrap;connectable=0;strokeColor=inherit;overflow=hidden;fillColor=none;top=0;left=0;bottom=0;right=0;pointerEvents=1;" vertex="1" parent="nOmz34Z4Xu-gI0Pr4fBR-76">
          <mxGeometry x="110" width="80" height="80" as="geometry">
            <mxRectangle width="80" height="80" as="alternateBounds" />
          </mxGeometry>
        </mxCell>
        <mxCell id="nOmz34Z4Xu-gI0Pr4fBR-80" value="\( \gamma_3\wedge \gamma_2\)" style="shape=partialRectangle;html=1;whiteSpace=wrap;connectable=0;strokeColor=inherit;overflow=hidden;fillColor=none;top=0;left=0;bottom=0;right=0;pointerEvents=1;" vertex="1" parent="nOmz34Z4Xu-gI0Pr4fBR-76">
          <mxGeometry x="190" width="80" height="80" as="geometry">
            <mxRectangle width="80" height="80" as="alternateBounds" />
          </mxGeometry>
        </mxCell>
        <mxCell id="nOmz34Z4Xu-gI0Pr4fBR-81" value="\( \gamma_3\wedge \gamma_3\)" style="shape=partialRectangle;html=1;whiteSpace=wrap;connectable=0;strokeColor=inherit;overflow=hidden;fillColor=none;top=0;left=0;bottom=0;right=0;pointerEvents=1;" vertex="1" parent="nOmz34Z4Xu-gI0Pr4fBR-76">
          <mxGeometry x="270" width="80" height="80" as="geometry">
            <mxRectangle width="80" height="80" as="alternateBounds" />
          </mxGeometry>
        </mxCell>
        <mxCell id="nOmz34Z4Xu-gI0Pr4fBR-82" value="Matrix of products between basis elements (column major)" style="text;html=1;align=center;verticalAlign=middle;resizable=0;points=[];autosize=1;strokeColor=none;fillColor=none;" vertex="1" parent="1">
          <mxGeometry x="300" y="20" width="330" height="30" as="geometry" />
        </mxCell>
        <mxCell id="nOmz34Z4Xu-gI0Pr4fBR-83" value="" style="shape=table;startSize=0;container=1;collapsible=0;childLayout=tableLayout;" vertex="1" parent="1">
          <mxGeometry x="290" y="480" width="350" height="350" as="geometry" />
        </mxCell>
        <mxCell id="nOmz34Z4Xu-gI0Pr4fBR-84" value="" style="shape=tableRow;horizontal=0;startSize=0;swimlaneHead=0;swimlaneBody=0;strokeColor=inherit;top=0;left=0;bottom=0;right=0;collapsible=0;dropTarget=0;fillColor=none;points=[[0,0.5],[1,0.5]];portConstraint=eastwest;" vertex="1" parent="nOmz34Z4Xu-gI0Pr4fBR-83">
          <mxGeometry width="350" height="30" as="geometry" />
        </mxCell>
        <mxCell id="nOmz34Z4Xu-gI0Pr4fBR-85" value="" style="shape=partialRectangle;html=1;whiteSpace=wrap;connectable=0;strokeColor=inherit;overflow=hidden;fillColor=none;top=0;left=0;bottom=0;right=0;pointerEvents=1;" vertex="1" parent="nOmz34Z4Xu-gI0Pr4fBR-84">
          <mxGeometry width="27" height="30" as="geometry">
            <mxRectangle width="27" height="30" as="alternateBounds" />
          </mxGeometry>
        </mxCell>
        <mxCell id="nOmz34Z4Xu-gI0Pr4fBR-86" value="\(\gamma_0\)" style="shape=partialRectangle;html=1;whiteSpace=wrap;connectable=0;strokeColor=inherit;overflow=hidden;fillColor=none;top=0;left=0;bottom=0;right=0;pointerEvents=1;" vertex="1" parent="nOmz34Z4Xu-gI0Pr4fBR-84">
          <mxGeometry x="27" width="83" height="30" as="geometry">
            <mxRectangle width="83" height="30" as="alternateBounds" />
          </mxGeometry>
        </mxCell>
        <mxCell id="nOmz34Z4Xu-gI0Pr4fBR-87" value="\(\gamma_1\)" style="shape=partialRectangle;html=1;whiteSpace=wrap;connectable=0;strokeColor=inherit;overflow=hidden;fillColor=none;top=0;left=0;bottom=0;right=0;pointerEvents=1;" vertex="1" parent="nOmz34Z4Xu-gI0Pr4fBR-84">
          <mxGeometry x="110" width="80" height="30" as="geometry">
            <mxRectangle width="80" height="30" as="alternateBounds" />
          </mxGeometry>
        </mxCell>
        <mxCell id="nOmz34Z4Xu-gI0Pr4fBR-88" value="\(\gamma_2 \)" style="shape=partialRectangle;html=1;whiteSpace=wrap;connectable=0;strokeColor=inherit;overflow=hidden;fillColor=none;top=0;left=0;bottom=0;right=0;pointerEvents=1;" vertex="1" parent="nOmz34Z4Xu-gI0Pr4fBR-84">
          <mxGeometry x="190" width="80" height="30" as="geometry">
            <mxRectangle width="80" height="30" as="alternateBounds" />
          </mxGeometry>
        </mxCell>
        <mxCell id="nOmz34Z4Xu-gI0Pr4fBR-89" value="\( \gamma_3\)" style="shape=partialRectangle;html=1;whiteSpace=wrap;connectable=0;strokeColor=inherit;overflow=hidden;fillColor=none;top=0;left=0;bottom=0;right=0;pointerEvents=1;" vertex="1" parent="nOmz34Z4Xu-gI0Pr4fBR-84">
          <mxGeometry x="270" width="80" height="30" as="geometry">
            <mxRectangle width="80" height="30" as="alternateBounds" />
          </mxGeometry>
        </mxCell>
        <mxCell id="nOmz34Z4Xu-gI0Pr4fBR-90" value="" style="shape=tableRow;horizontal=0;startSize=0;swimlaneHead=0;swimlaneBody=0;strokeColor=inherit;top=0;left=0;bottom=0;right=0;collapsible=0;dropTarget=0;fillColor=none;points=[[0,0.5],[1,0.5]];portConstraint=eastwest;" vertex="1" parent="nOmz34Z4Xu-gI0Pr4fBR-83">
          <mxGeometry y="30" width="350" height="80" as="geometry" />
        </mxCell>
        <mxCell id="nOmz34Z4Xu-gI0Pr4fBR-91" value="\(\gamma_0\)" style="shape=partialRectangle;html=1;whiteSpace=wrap;connectable=0;strokeColor=inherit;overflow=hidden;fillColor=none;top=0;left=0;bottom=0;right=0;pointerEvents=1;" vertex="1" parent="nOmz34Z4Xu-gI0Pr4fBR-90">
          <mxGeometry width="27" height="80" as="geometry">
            <mxRectangle width="27" height="80" as="alternateBounds" />
          </mxGeometry>
        </mxCell>
        <mxCell id="nOmz34Z4Xu-gI0Pr4fBR-92" value="\( \gamma_0^2=1\)" style="shape=partialRectangle;html=1;whiteSpace=wrap;connectable=0;strokeColor=#6c8ebf;overflow=hidden;fillColor=#dae8fc;top=1;left=1;bottom=1;right=1;pointerEvents=1;perimeterSpacing=0;shadow=0;" vertex="1" parent="nOmz34Z4Xu-gI0Pr4fBR-90">
          <mxGeometry x="27" width="83" height="80" as="geometry">
            <mxRectangle width="83" height="80" as="alternateBounds" />
          </mxGeometry>
        </mxCell>
        <mxCell id="nOmz34Z4Xu-gI0Pr4fBR-93" value="\( \gamma_{01}\)" style="shape=partialRectangle;html=1;whiteSpace=wrap;connectable=0;strokeColor=#82b366;overflow=hidden;fillColor=#d5e8d4;top=1;left=1;bottom=1;right=1;pointerEvents=1;perimeterSpacing=0;shadow=0;" vertex="1" parent="nOmz34Z4Xu-gI0Pr4fBR-90">
          <mxGeometry x="110" width="80" height="80" as="geometry">
            <mxRectangle width="80" height="80" as="alternateBounds" />
          </mxGeometry>
        </mxCell>
        <mxCell id="nOmz34Z4Xu-gI0Pr4fBR-94" value="\( \gamma_{02}\)" style="shape=partialRectangle;html=1;whiteSpace=wrap;connectable=0;strokeColor=#82b366;overflow=hidden;fillColor=#d5e8d4;top=1;left=1;bottom=1;right=1;pointerEvents=1;perimeterSpacing=0;shadow=0;" vertex="1" parent="nOmz34Z4Xu-gI0Pr4fBR-90">
          <mxGeometry x="190" width="80" height="80" as="geometry">
            <mxRectangle width="80" height="80" as="alternateBounds" />
          </mxGeometry>
        </mxCell>
        <mxCell id="nOmz34Z4Xu-gI0Pr4fBR-95" value="\( \gamma_{03}\)" style="shape=partialRectangle;html=1;whiteSpace=wrap;connectable=0;strokeColor=#82b366;overflow=hidden;fillColor=#d5e8d4;top=1;left=1;bottom=1;right=1;pointerEvents=1;perimeterSpacing=0;shadow=0;" vertex="1" parent="nOmz34Z4Xu-gI0Pr4fBR-90">
          <mxGeometry x="270" width="80" height="80" as="geometry">
            <mxRectangle width="80" height="80" as="alternateBounds" />
          </mxGeometry>
        </mxCell>
        <mxCell id="nOmz34Z4Xu-gI0Pr4fBR-96" value="" style="shape=tableRow;horizontal=0;startSize=0;swimlaneHead=0;swimlaneBody=0;strokeColor=inherit;top=0;left=0;bottom=0;right=0;collapsible=0;dropTarget=0;fillColor=none;points=[[0,0.5],[1,0.5]];portConstraint=eastwest;" vertex="1" parent="nOmz34Z4Xu-gI0Pr4fBR-83">
          <mxGeometry y="110" width="350" height="80" as="geometry" />
        </mxCell>
        <mxCell id="nOmz34Z4Xu-gI0Pr4fBR-97" value="\(\gamma_1\)" style="shape=partialRectangle;html=1;whiteSpace=wrap;connectable=0;strokeColor=inherit;overflow=hidden;fillColor=none;top=0;left=0;bottom=0;right=0;pointerEvents=1;" vertex="1" parent="nOmz34Z4Xu-gI0Pr4fBR-96">
          <mxGeometry width="27" height="80" as="geometry">
            <mxRectangle width="27" height="80" as="alternateBounds" />
          </mxGeometry>
        </mxCell>
        <mxCell id="nOmz34Z4Xu-gI0Pr4fBR-98" value="\(- \gamma_{01}\)" style="shape=partialRectangle;html=1;whiteSpace=wrap;connectable=0;strokeColor=#82b366;overflow=hidden;fillColor=#d5e8d4;top=1;left=1;bottom=1;right=1;pointerEvents=1;perimeterSpacing=0;shadow=0;" vertex="1" parent="nOmz34Z4Xu-gI0Pr4fBR-96">
          <mxGeometry x="27" width="83" height="80" as="geometry">
            <mxRectangle width="83" height="80" as="alternateBounds" />
          </mxGeometry>
        </mxCell>
        <mxCell id="nOmz34Z4Xu-gI0Pr4fBR-99" value="\( \gamma_1^2=-1\)" style="shape=partialRectangle;html=1;whiteSpace=wrap;connectable=0;strokeColor=#6c8ebf;overflow=hidden;fillColor=#dae8fc;top=1;left=1;bottom=1;right=1;pointerEvents=1;perimeterSpacing=0;shadow=0;" vertex="1" parent="nOmz34Z4Xu-gI0Pr4fBR-96">
          <mxGeometry x="110" width="80" height="80" as="geometry">
            <mxRectangle width="80" height="80" as="alternateBounds" />
          </mxGeometry>
        </mxCell>
        <mxCell id="nOmz34Z4Xu-gI0Pr4fBR-100" value="\( \gamma_{12}\)" style="shape=partialRectangle;html=1;whiteSpace=wrap;connectable=0;strokeColor=#82b366;overflow=hidden;fillColor=#d5e8d4;top=1;left=1;bottom=1;right=1;pointerEvents=1;perimeterSpacing=0;shadow=0;" vertex="1" parent="nOmz34Z4Xu-gI0Pr4fBR-96">
          <mxGeometry x="190" width="80" height="80" as="geometry">
            <mxRectangle width="80" height="80" as="alternateBounds" />
          </mxGeometry>
        </mxCell>
        <mxCell id="nOmz34Z4Xu-gI0Pr4fBR-101" value="\( \gamma_{13}\)" style="shape=partialRectangle;html=1;whiteSpace=wrap;connectable=0;strokeColor=#82b366;overflow=hidden;fillColor=#d5e8d4;top=1;left=1;bottom=1;right=1;pointerEvents=1;perimeterSpacing=0;shadow=0;" vertex="1" parent="nOmz34Z4Xu-gI0Pr4fBR-96">
          <mxGeometry x="270" width="80" height="80" as="geometry">
            <mxRectangle width="80" height="80" as="alternateBounds" />
          </mxGeometry>
        </mxCell>
        <mxCell id="nOmz34Z4Xu-gI0Pr4fBR-102" value="" style="shape=tableRow;horizontal=0;startSize=0;swimlaneHead=0;swimlaneBody=0;strokeColor=inherit;top=0;left=0;bottom=0;right=0;collapsible=0;dropTarget=0;fillColor=none;points=[[0,0.5],[1,0.5]];portConstraint=eastwest;" vertex="1" parent="nOmz34Z4Xu-gI0Pr4fBR-83">
          <mxGeometry y="190" width="350" height="80" as="geometry" />
        </mxCell>
        <mxCell id="nOmz34Z4Xu-gI0Pr4fBR-103" value="\(\gamma_2 \)" style="shape=partialRectangle;html=1;whiteSpace=wrap;connectable=0;strokeColor=inherit;overflow=hidden;fillColor=none;top=0;left=0;bottom=0;right=0;pointerEvents=1;" vertex="1" parent="nOmz34Z4Xu-gI0Pr4fBR-102">
          <mxGeometry width="27" height="80" as="geometry">
            <mxRectangle width="27" height="80" as="alternateBounds" />
          </mxGeometry>
        </mxCell>
        <mxCell id="nOmz34Z4Xu-gI0Pr4fBR-104" value="\( -\gamma_{02}\)" style="shape=partialRectangle;html=1;whiteSpace=wrap;connectable=0;strokeColor=#82b366;overflow=hidden;fillColor=#d5e8d4;top=1;left=1;bottom=1;right=1;pointerEvents=1;perimeterSpacing=0;shadow=0;" vertex="1" parent="nOmz34Z4Xu-gI0Pr4fBR-102">
          <mxGeometry x="27" width="83" height="80" as="geometry">
            <mxRectangle width="83" height="80" as="alternateBounds" />
          </mxGeometry>
        </mxCell>
        <mxCell id="nOmz34Z4Xu-gI0Pr4fBR-105" value="\(- \gamma_{12}\)" style="shape=partialRectangle;html=1;whiteSpace=wrap;connectable=0;strokeColor=#82b366;overflow=hidden;fillColor=#d5e8d4;top=1;left=1;bottom=1;right=1;pointerEvents=1;perimeterSpacing=0;shadow=0;" vertex="1" parent="nOmz34Z4Xu-gI0Pr4fBR-102">
          <mxGeometry x="110" width="80" height="80" as="geometry">
            <mxRectangle width="80" height="80" as="alternateBounds" />
          </mxGeometry>
        </mxCell>
        <mxCell id="nOmz34Z4Xu-gI0Pr4fBR-106" value="\( \gamma_2^2=-1\)" style="shape=partialRectangle;html=1;whiteSpace=wrap;connectable=0;strokeColor=#6c8ebf;overflow=hidden;fillColor=#dae8fc;top=1;left=1;bottom=1;right=1;pointerEvents=1;perimeterSpacing=0;shadow=0;" vertex="1" parent="nOmz34Z4Xu-gI0Pr4fBR-102">
          <mxGeometry x="190" width="80" height="80" as="geometry">
            <mxRectangle width="80" height="80" as="alternateBounds" />
          </mxGeometry>
        </mxCell>
        <mxCell id="nOmz34Z4Xu-gI0Pr4fBR-107" value="\( \gamma_{23}\)" style="shape=partialRectangle;html=1;whiteSpace=wrap;connectable=0;strokeColor=#82b366;overflow=hidden;fillColor=#d5e8d4;top=1;left=1;bottom=1;right=1;pointerEvents=1;perimeterSpacing=0;shadow=0;" vertex="1" parent="nOmz34Z4Xu-gI0Pr4fBR-102">
          <mxGeometry x="270" width="80" height="80" as="geometry">
            <mxRectangle width="80" height="80" as="alternateBounds" />
          </mxGeometry>
        </mxCell>
        <mxCell id="nOmz34Z4Xu-gI0Pr4fBR-108" value="" style="shape=tableRow;horizontal=0;startSize=0;swimlaneHead=0;swimlaneBody=0;strokeColor=inherit;top=0;left=0;bottom=0;right=0;collapsible=0;dropTarget=0;fillColor=none;points=[[0,0.5],[1,0.5]];portConstraint=eastwest;" vertex="1" parent="nOmz34Z4Xu-gI0Pr4fBR-83">
          <mxGeometry y="270" width="350" height="80" as="geometry" />
        </mxCell>
        <mxCell id="nOmz34Z4Xu-gI0Pr4fBR-109" value="\( \gamma_3\)" style="shape=partialRectangle;html=1;whiteSpace=wrap;connectable=0;strokeColor=inherit;overflow=hidden;fillColor=none;top=0;left=0;bottom=0;right=0;pointerEvents=1;" vertex="1" parent="nOmz34Z4Xu-gI0Pr4fBR-108">
          <mxGeometry width="27" height="80" as="geometry">
            <mxRectangle width="27" height="80" as="alternateBounds" />
          </mxGeometry>
        </mxCell>
        <mxCell id="nOmz34Z4Xu-gI0Pr4fBR-110" value="\( -\gamma_{03}\)" style="shape=partialRectangle;html=1;whiteSpace=wrap;connectable=0;strokeColor=#82b366;overflow=hidden;fillColor=#d5e8d4;top=1;left=1;bottom=1;right=1;pointerEvents=1;perimeterSpacing=0;shadow=0;" vertex="1" parent="nOmz34Z4Xu-gI0Pr4fBR-108">
          <mxGeometry x="27" width="83" height="80" as="geometry">
            <mxRectangle width="83" height="80" as="alternateBounds" />
          </mxGeometry>
        </mxCell>
        <mxCell id="nOmz34Z4Xu-gI0Pr4fBR-111" value="\(- \gamma_{13}\)" style="shape=partialRectangle;html=1;whiteSpace=wrap;connectable=0;strokeColor=#82b366;overflow=hidden;fillColor=#d5e8d4;top=1;left=1;bottom=1;right=1;pointerEvents=1;perimeterSpacing=0;shadow=0;" vertex="1" parent="nOmz34Z4Xu-gI0Pr4fBR-108">
          <mxGeometry x="110" width="80" height="80" as="geometry">
            <mxRectangle width="80" height="80" as="alternateBounds" />
          </mxGeometry>
        </mxCell>
        <mxCell id="nOmz34Z4Xu-gI0Pr4fBR-112" value="\( -\gamma_{23}\)" style="shape=partialRectangle;html=1;whiteSpace=wrap;connectable=0;strokeColor=#82b366;overflow=hidden;fillColor=#d5e8d4;top=1;left=1;bottom=1;right=1;pointerEvents=1;perimeterSpacing=0;shadow=0;" vertex="1" parent="nOmz34Z4Xu-gI0Pr4fBR-108">
          <mxGeometry x="190" width="80" height="80" as="geometry">
            <mxRectangle width="80" height="80" as="alternateBounds" />
          </mxGeometry>
        </mxCell>
        <mxCell id="nOmz34Z4Xu-gI0Pr4fBR-113" value="\( \gamma_3^2=-1\)" style="shape=partialRectangle;html=1;whiteSpace=wrap;connectable=0;strokeColor=#6c8ebf;overflow=hidden;fillColor=#dae8fc;top=1;left=1;bottom=1;right=1;pointerEvents=1;perimeterSpacing=0;shadow=0;" vertex="1" parent="nOmz34Z4Xu-gI0Pr4fBR-108">
          <mxGeometry x="270" width="80" height="80" as="geometry">
            <mxRectangle width="80" height="80" as="alternateBounds" />
          </mxGeometry>
        </mxCell>
        <mxCell id="nOmz34Z4Xu-gI0Pr4fBR-114" value="Matrix of products between basis elements (column major)" style="text;html=1;align=center;verticalAlign=middle;resizable=0;points=[];autosize=1;strokeColor=none;fillColor=none;" vertex="1" parent="1">
          <mxGeometry x="300" y="450" width="330" height="30" as="geometry" />
        </mxCell>
        <mxCell id="nOmz34Z4Xu-gI0Pr4fBR-115" value="Expanded:" style="text;html=1;align=center;verticalAlign=middle;resizable=0;points=[];autosize=1;strokeColor=none;fillColor=none;" vertex="1" parent="1">
          <mxGeometry x="425" y="420" width="80" height="30" as="geometry" />
        </mxCell>
        <mxCell id="nOmz34Z4Xu-gI0Pr4fBR-116" value="bivector" style="rounded=0;whiteSpace=wrap;html=1;fillColor=#d5e8d4;strokeColor=#82b366;" vertex="1" parent="1">
          <mxGeometry x="140" y="480" width="50" height="40" as="geometry" />
        </mxCell>
        <mxCell id="nOmz34Z4Xu-gI0Pr4fBR-118" value="diag" style="rounded=0;whiteSpace=wrap;html=1;fillColor=#dae8fc;strokeColor=#6c8ebf;" vertex="1" parent="1">
          <mxGeometry x="140" y="550" width="50" height="40" as="geometry" />
        </mxCell>
        <mxCell id="nOmz34Z4Xu-gI0Pr4fBR-119" value="" style="shape=table;startSize=0;container=1;collapsible=0;childLayout=tableLayout;" vertex="1" parent="1">
          <mxGeometry x="790" y="305" width="350" height="350" as="geometry" />
        </mxCell>
        <mxCell id="nOmz34Z4Xu-gI0Pr4fBR-120" value="" style="shape=tableRow;horizontal=0;startSize=0;swimlaneHead=0;swimlaneBody=0;strokeColor=inherit;top=0;left=0;bottom=0;right=0;collapsible=0;dropTarget=0;fillColor=none;points=[[0,0.5],[1,0.5]];portConstraint=eastwest;" vertex="1" parent="nOmz34Z4Xu-gI0Pr4fBR-119">
          <mxGeometry width="350" height="30" as="geometry" />
        </mxCell>
        <mxCell id="nOmz34Z4Xu-gI0Pr4fBR-121" value="" style="shape=partialRectangle;html=1;whiteSpace=wrap;connectable=0;strokeColor=inherit;overflow=hidden;fillColor=none;top=0;left=0;bottom=0;right=0;pointerEvents=1;" vertex="1" parent="nOmz34Z4Xu-gI0Pr4fBR-120">
          <mxGeometry width="27" height="30" as="geometry">
            <mxRectangle width="27" height="30" as="alternateBounds" />
          </mxGeometry>
        </mxCell>
        <mxCell id="nOmz34Z4Xu-gI0Pr4fBR-122" value="\(\gamma_0\)" style="shape=partialRectangle;html=1;whiteSpace=wrap;connectable=0;strokeColor=inherit;overflow=hidden;fillColor=none;top=0;left=0;bottom=0;right=0;pointerEvents=1;" vertex="1" parent="nOmz34Z4Xu-gI0Pr4fBR-120">
          <mxGeometry x="27" width="83" height="30" as="geometry">
            <mxRectangle width="83" height="30" as="alternateBounds" />
          </mxGeometry>
        </mxCell>
        <mxCell id="nOmz34Z4Xu-gI0Pr4fBR-123" value="\(\gamma_1\)" style="shape=partialRectangle;html=1;whiteSpace=wrap;connectable=0;strokeColor=inherit;overflow=hidden;fillColor=none;top=0;left=0;bottom=0;right=0;pointerEvents=1;" vertex="1" parent="nOmz34Z4Xu-gI0Pr4fBR-120">
          <mxGeometry x="110" width="80" height="30" as="geometry">
            <mxRectangle width="80" height="30" as="alternateBounds" />
          </mxGeometry>
        </mxCell>
        <mxCell id="nOmz34Z4Xu-gI0Pr4fBR-124" value="\(\gamma_2 \)" style="shape=partialRectangle;html=1;whiteSpace=wrap;connectable=0;strokeColor=inherit;overflow=hidden;fillColor=none;top=0;left=0;bottom=0;right=0;pointerEvents=1;" vertex="1" parent="nOmz34Z4Xu-gI0Pr4fBR-120">
          <mxGeometry x="190" width="80" height="30" as="geometry">
            <mxRectangle width="80" height="30" as="alternateBounds" />
          </mxGeometry>
        </mxCell>
        <mxCell id="nOmz34Z4Xu-gI0Pr4fBR-125" value="\( \gamma_3\)" style="shape=partialRectangle;html=1;whiteSpace=wrap;connectable=0;strokeColor=inherit;overflow=hidden;fillColor=none;top=0;left=0;bottom=0;right=0;pointerEvents=1;" vertex="1" parent="nOmz34Z4Xu-gI0Pr4fBR-120">
          <mxGeometry x="270" width="80" height="30" as="geometry">
            <mxRectangle width="80" height="30" as="alternateBounds" />
          </mxGeometry>
        </mxCell>
        <mxCell id="nOmz34Z4Xu-gI0Pr4fBR-126" value="" style="shape=tableRow;horizontal=0;startSize=0;swimlaneHead=0;swimlaneBody=0;strokeColor=inherit;top=0;left=0;bottom=0;right=0;collapsible=0;dropTarget=0;fillColor=none;points=[[0,0.5],[1,0.5]];portConstraint=eastwest;" vertex="1" parent="nOmz34Z4Xu-gI0Pr4fBR-119">
          <mxGeometry y="30" width="350" height="80" as="geometry" />
        </mxCell>
        <mxCell id="nOmz34Z4Xu-gI0Pr4fBR-127" value="\(\gamma_0\)" style="shape=partialRectangle;html=1;whiteSpace=wrap;connectable=0;strokeColor=inherit;overflow=hidden;fillColor=none;top=0;left=0;bottom=0;right=0;pointerEvents=1;" vertex="1" parent="nOmz34Z4Xu-gI0Pr4fBR-126">
          <mxGeometry width="27" height="80" as="geometry">
            <mxRectangle width="27" height="80" as="alternateBounds" />
          </mxGeometry>
        </mxCell>
        <mxCell id="nOmz34Z4Xu-gI0Pr4fBR-128" value="\( \gamma\)" style="shape=partialRectangle;html=1;whiteSpace=wrap;connectable=0;strokeColor=inherit;overflow=hidden;fillColor=none;top=0;left=0;bottom=0;right=0;pointerEvents=1;" vertex="1" parent="nOmz34Z4Xu-gI0Pr4fBR-126">
          <mxGeometry x="27" width="83" height="80" as="geometry">
            <mxRectangle width="83" height="80" as="alternateBounds" />
          </mxGeometry>
        </mxCell>
        <mxCell id="nOmz34Z4Xu-gI0Pr4fBR-129" value="\(-\gamma \beta_x\)" style="shape=partialRectangle;html=1;whiteSpace=wrap;connectable=0;strokeColor=inherit;overflow=hidden;fillColor=none;top=0;left=0;bottom=0;right=0;pointerEvents=1;" vertex="1" parent="nOmz34Z4Xu-gI0Pr4fBR-126">
          <mxGeometry x="110" width="80" height="80" as="geometry">
            <mxRectangle width="80" height="80" as="alternateBounds" />
          </mxGeometry>
        </mxCell>
        <mxCell id="nOmz34Z4Xu-gI0Pr4fBR-130" value="\(-\gamma \beta_y\)" style="shape=partialRectangle;html=1;whiteSpace=wrap;connectable=0;strokeColor=inherit;overflow=hidden;fillColor=none;top=0;left=0;bottom=0;right=0;pointerEvents=1;" vertex="1" parent="nOmz34Z4Xu-gI0Pr4fBR-126">
          <mxGeometry x="190" width="80" height="80" as="geometry">
            <mxRectangle width="80" height="80" as="alternateBounds" />
          </mxGeometry>
        </mxCell>
        <mxCell id="nOmz34Z4Xu-gI0Pr4fBR-131" value="\(-\gamma \beta_z\)" style="shape=partialRectangle;html=1;whiteSpace=wrap;connectable=0;strokeColor=inherit;overflow=hidden;fillColor=none;top=0;left=0;bottom=0;right=0;pointerEvents=1;" vertex="1" parent="nOmz34Z4Xu-gI0Pr4fBR-126">
          <mxGeometry x="270" width="80" height="80" as="geometry">
            <mxRectangle width="80" height="80" as="alternateBounds" />
          </mxGeometry>
        </mxCell>
        <mxCell id="nOmz34Z4Xu-gI0Pr4fBR-132" value="" style="shape=tableRow;horizontal=0;startSize=0;swimlaneHead=0;swimlaneBody=0;strokeColor=inherit;top=0;left=0;bottom=0;right=0;collapsible=0;dropTarget=0;fillColor=none;points=[[0,0.5],[1,0.5]];portConstraint=eastwest;" vertex="1" parent="nOmz34Z4Xu-gI0Pr4fBR-119">
          <mxGeometry y="110" width="350" height="80" as="geometry" />
        </mxCell>
        <mxCell id="nOmz34Z4Xu-gI0Pr4fBR-133" value="\(\gamma_1\)" style="shape=partialRectangle;html=1;whiteSpace=wrap;connectable=0;strokeColor=inherit;overflow=hidden;fillColor=none;top=0;left=0;bottom=0;right=0;pointerEvents=1;" vertex="1" parent="nOmz34Z4Xu-gI0Pr4fBR-132">
          <mxGeometry width="27" height="80" as="geometry">
            <mxRectangle width="27" height="80" as="alternateBounds" />
          </mxGeometry>
        </mxCell>
        <mxCell id="nOmz34Z4Xu-gI0Pr4fBR-134" value="\(-\gamma \beta_x\)" style="shape=partialRectangle;html=1;whiteSpace=wrap;connectable=0;strokeColor=inherit;overflow=hidden;fillColor=none;top=0;left=0;bottom=0;right=0;pointerEvents=1;" vertex="1" parent="nOmz34Z4Xu-gI0Pr4fBR-132">
          <mxGeometry x="27" width="83" height="80" as="geometry">
            <mxRectangle width="83" height="80" as="alternateBounds" />
          </mxGeometry>
        </mxCell>
        <mxCell id="nOmz34Z4Xu-gI0Pr4fBR-135" value="\( 1 + \frac{\gamma^2}{1 + \gamma}\beta^2_x \)" style="shape=partialRectangle;html=1;whiteSpace=wrap;connectable=0;strokeColor=inherit;overflow=hidden;fillColor=none;top=0;left=0;bottom=0;right=0;pointerEvents=1;" vertex="1" parent="nOmz34Z4Xu-gI0Pr4fBR-132">
          <mxGeometry x="110" width="80" height="80" as="geometry">
            <mxRectangle width="80" height="80" as="alternateBounds" />
          </mxGeometry>
        </mxCell>
        <mxCell id="nOmz34Z4Xu-gI0Pr4fBR-136" value="\( \frac{\gamma^2}{1 + \gamma}\beta_x\beta_y \)" style="shape=partialRectangle;html=1;whiteSpace=wrap;connectable=0;strokeColor=inherit;overflow=hidden;fillColor=none;top=0;left=0;bottom=0;right=0;pointerEvents=1;" vertex="1" parent="nOmz34Z4Xu-gI0Pr4fBR-132">
          <mxGeometry x="190" width="80" height="80" as="geometry">
            <mxRectangle width="80" height="80" as="alternateBounds" />
          </mxGeometry>
        </mxCell>
        <mxCell id="nOmz34Z4Xu-gI0Pr4fBR-137" value="\( \frac{\gamma^2}{1 + \gamma}\beta_x\beta_z \)" style="shape=partialRectangle;html=1;whiteSpace=wrap;connectable=0;strokeColor=inherit;overflow=hidden;fillColor=none;top=0;left=0;bottom=0;right=0;pointerEvents=1;" vertex="1" parent="nOmz34Z4Xu-gI0Pr4fBR-132">
          <mxGeometry x="270" width="80" height="80" as="geometry">
            <mxRectangle width="80" height="80" as="alternateBounds" />
          </mxGeometry>
        </mxCell>
        <mxCell id="nOmz34Z4Xu-gI0Pr4fBR-138" value="" style="shape=tableRow;horizontal=0;startSize=0;swimlaneHead=0;swimlaneBody=0;strokeColor=inherit;top=0;left=0;bottom=0;right=0;collapsible=0;dropTarget=0;fillColor=none;points=[[0,0.5],[1,0.5]];portConstraint=eastwest;" vertex="1" parent="nOmz34Z4Xu-gI0Pr4fBR-119">
          <mxGeometry y="190" width="350" height="80" as="geometry" />
        </mxCell>
        <mxCell id="nOmz34Z4Xu-gI0Pr4fBR-139" value="\(\gamma_2 \)" style="shape=partialRectangle;html=1;whiteSpace=wrap;connectable=0;strokeColor=inherit;overflow=hidden;fillColor=none;top=0;left=0;bottom=0;right=0;pointerEvents=1;" vertex="1" parent="nOmz34Z4Xu-gI0Pr4fBR-138">
          <mxGeometry width="27" height="80" as="geometry">
            <mxRectangle width="27" height="80" as="alternateBounds" />
          </mxGeometry>
        </mxCell>
        <mxCell id="nOmz34Z4Xu-gI0Pr4fBR-140" value="\(-\gamma \beta_y\)" style="shape=partialRectangle;html=1;whiteSpace=wrap;connectable=0;strokeColor=inherit;overflow=hidden;fillColor=none;top=0;left=0;bottom=0;right=0;pointerEvents=1;" vertex="1" parent="nOmz34Z4Xu-gI0Pr4fBR-138">
          <mxGeometry x="27" width="83" height="80" as="geometry">
            <mxRectangle width="83" height="80" as="alternateBounds" />
          </mxGeometry>
        </mxCell>
        <mxCell id="nOmz34Z4Xu-gI0Pr4fBR-141" value="\( \frac{\gamma^2}{1 + \gamma}\beta_x\beta_y \)" style="shape=partialRectangle;html=1;whiteSpace=wrap;connectable=0;strokeColor=inherit;overflow=hidden;fillColor=none;top=0;left=0;bottom=0;right=0;pointerEvents=1;" vertex="1" parent="nOmz34Z4Xu-gI0Pr4fBR-138">
          <mxGeometry x="110" width="80" height="80" as="geometry">
            <mxRectangle width="80" height="80" as="alternateBounds" />
          </mxGeometry>
        </mxCell>
        <mxCell id="nOmz34Z4Xu-gI0Pr4fBR-142" value="\( 1 + \frac{\gamma^2}{1 + \gamma}\beta^2_y \)" style="shape=partialRectangle;html=1;whiteSpace=wrap;connectable=0;strokeColor=inherit;overflow=hidden;fillColor=none;top=0;left=0;bottom=0;right=0;pointerEvents=1;" vertex="1" parent="nOmz34Z4Xu-gI0Pr4fBR-138">
          <mxGeometry x="190" width="80" height="80" as="geometry">
            <mxRectangle width="80" height="80" as="alternateBounds" />
          </mxGeometry>
        </mxCell>
        <mxCell id="nOmz34Z4Xu-gI0Pr4fBR-143" value="\( \frac{\gamma^2}{1 + \gamma}\beta_y\beta_z \)" style="shape=partialRectangle;html=1;whiteSpace=wrap;connectable=0;strokeColor=inherit;overflow=hidden;fillColor=none;top=0;left=0;bottom=0;right=0;pointerEvents=1;" vertex="1" parent="nOmz34Z4Xu-gI0Pr4fBR-138">
          <mxGeometry x="270" width="80" height="80" as="geometry">
            <mxRectangle width="80" height="80" as="alternateBounds" />
          </mxGeometry>
        </mxCell>
        <mxCell id="nOmz34Z4Xu-gI0Pr4fBR-144" value="" style="shape=tableRow;horizontal=0;startSize=0;swimlaneHead=0;swimlaneBody=0;strokeColor=inherit;top=0;left=0;bottom=0;right=0;collapsible=0;dropTarget=0;fillColor=none;points=[[0,0.5],[1,0.5]];portConstraint=eastwest;" vertex="1" parent="nOmz34Z4Xu-gI0Pr4fBR-119">
          <mxGeometry y="270" width="350" height="80" as="geometry" />
        </mxCell>
        <mxCell id="nOmz34Z4Xu-gI0Pr4fBR-145" value="\( \gamma_3\)" style="shape=partialRectangle;html=1;whiteSpace=wrap;connectable=0;strokeColor=inherit;overflow=hidden;fillColor=none;top=0;left=0;bottom=0;right=0;pointerEvents=1;" vertex="1" parent="nOmz34Z4Xu-gI0Pr4fBR-144">
          <mxGeometry width="27" height="80" as="geometry">
            <mxRectangle width="27" height="80" as="alternateBounds" />
          </mxGeometry>
        </mxCell>
        <mxCell id="nOmz34Z4Xu-gI0Pr4fBR-146" value="\(-\gamma \beta_z\)" style="shape=partialRectangle;html=1;whiteSpace=wrap;connectable=0;strokeColor=inherit;overflow=hidden;fillColor=none;top=0;left=0;bottom=0;right=0;pointerEvents=1;" vertex="1" parent="nOmz34Z4Xu-gI0Pr4fBR-144">
          <mxGeometry x="27" width="83" height="80" as="geometry">
            <mxRectangle width="83" height="80" as="alternateBounds" />
          </mxGeometry>
        </mxCell>
        <mxCell id="nOmz34Z4Xu-gI0Pr4fBR-147" value="\( \frac{\gamma^2}{1 + \gamma}\beta_x\beta_z \)" style="shape=partialRectangle;html=1;whiteSpace=wrap;connectable=0;strokeColor=inherit;overflow=hidden;fillColor=none;top=0;left=0;bottom=0;right=0;pointerEvents=1;" vertex="1" parent="nOmz34Z4Xu-gI0Pr4fBR-144">
          <mxGeometry x="110" width="80" height="80" as="geometry">
            <mxRectangle width="80" height="80" as="alternateBounds" />
          </mxGeometry>
        </mxCell>
        <mxCell id="nOmz34Z4Xu-gI0Pr4fBR-148" value="\( \frac{\gamma^2}{1 + \gamma}\beta_y\beta_z \)" style="shape=partialRectangle;html=1;whiteSpace=wrap;connectable=0;strokeColor=inherit;overflow=hidden;fillColor=none;top=0;left=0;bottom=0;right=0;pointerEvents=1;" vertex="1" parent="nOmz34Z4Xu-gI0Pr4fBR-144">
          <mxGeometry x="190" width="80" height="80" as="geometry">
            <mxRectangle width="80" height="80" as="alternateBounds" />
          </mxGeometry>
        </mxCell>
        <mxCell id="nOmz34Z4Xu-gI0Pr4fBR-149" value="\( 1 + \frac{\gamma^2}{1 + \gamma}\beta^2_z \)" style="shape=partialRectangle;html=1;whiteSpace=wrap;connectable=0;strokeColor=inherit;overflow=hidden;fillColor=none;top=0;left=0;bottom=0;right=0;pointerEvents=1;" vertex="1" parent="nOmz34Z4Xu-gI0Pr4fBR-144">
          <mxGeometry x="270" width="80" height="80" as="geometry">
            <mxRectangle width="80" height="80" as="alternateBounds" />
          </mxGeometry>
        </mxCell>
        <mxCell id="nOmz34Z4Xu-gI0Pr4fBR-150" value="General form of Lorentz matrix" style="text;html=1;align=center;verticalAlign=middle;resizable=0;points=[];autosize=1;strokeColor=none;fillColor=none;" vertex="1" parent="1">
          <mxGeometry x="870" y="275" width="190" height="30" as="geometry" />
        </mxCell>
        <mxCell id="nOmz34Z4Xu-gI0Pr4fBR-151" value="&lt;div&gt;\(\gamma^0=\begin{pmatrix}1 &amp;amp;0&amp;amp;0&amp;amp;0 \\0&amp;amp;1&amp;amp;0&amp;amp;0 \\0&amp;amp;0&amp;amp;-1&amp;amp;0 \\0&amp;amp;0&amp;amp;0&amp;amp;-1\end{pmatrix}\)&lt;br&gt;&lt;/div&gt;" style="text;html=1;align=center;verticalAlign=middle;resizable=0;points=[];autosize=1;strokeColor=none;fillColor=none;" vertex="1" parent="1">
          <mxGeometry x="-360" y="-30" width="500" height="30" as="geometry" />
        </mxCell>
        <mxCell id="nOmz34Z4Xu-gI0Pr4fBR-152" value="\(\gamma^1 = \begin{pmatrix}0&amp;amp;0&amp;amp;0&amp;amp;1 \\0&amp;amp;0&amp;amp;1&amp;amp;0 \\0&amp;amp;-1&amp;amp;0&amp;amp;0 \\-1&amp;amp;0&amp;amp;0&amp;amp;0\end{pmatrix}\)" style="text;html=1;align=center;verticalAlign=middle;resizable=0;points=[];autosize=1;strokeColor=none;fillColor=none;" vertex="1" parent="1">
          <mxGeometry x="-360" y="60" width="500" height="30" as="geometry" />
        </mxCell>
        <mxCell id="nOmz34Z4Xu-gI0Pr4fBR-153" value="\(\gamma^3 =\begin{pmatrix}0&amp;amp;0&amp;amp;0 &amp;amp;-1 \\0&amp;amp;0&amp;amp;1&amp;amp;0 \\0&amp;amp;1&amp;amp;0&amp;amp;0 \\-1&amp;amp;0&amp;amp;0&amp;amp;0\end{pmatrix}\)" style="text;html=1;align=center;verticalAlign=middle;resizable=0;points=[];autosize=1;strokeColor=none;fillColor=none;" vertex="1" parent="1">
          <mxGeometry x="-360" y="150" width="500" height="30" as="geometry" />
        </mxCell>
        <mxCell id="nOmz34Z4Xu-gI0Pr4fBR-155" value="\(\gamma^3=\begin{pmatrix}0&amp;amp;0&amp;amp;1&amp;amp;0 \\0&amp;amp;0&amp;amp;0&amp;amp;-1 \\-1&amp;amp;0&amp;amp;0&amp;amp;0 \\0&amp;amp;1&amp;amp;0&amp;amp;0\end{pmatrix}\)" style="text;html=1;align=center;verticalAlign=middle;resizable=0;points=[];autosize=1;strokeColor=none;fillColor=none;" vertex="1" parent="1">
          <mxGeometry x="-355" y="240" width="490" height="30" as="geometry" />
        </mxCell>
        <mxCell id="nOmz34Z4Xu-gI0Pr4fBR-156" value="\(I_{4}=\begin{pmatrix}1&amp;amp;0&amp;amp;0&amp;amp;0 \\0&amp;amp;1&amp;amp;0&amp;amp;0 \\0&amp;amp;0&amp;amp;1&amp;amp;0\\0&amp;amp;0&amp;amp;0&amp;amp;1\end{pmatrix}\)" style="text;html=1;align=center;verticalAlign=middle;resizable=0;points=[];autosize=1;strokeColor=none;fillColor=none;" vertex="1" parent="1">
          <mxGeometry x="-335" y="338" width="450" height="30" as="geometry" />
        </mxCell>
        <mxCell id="nOmz34Z4Xu-gI0Pr4fBR-157" value="\(\gamma^5\equiv i \gamma^0 \gamma^1 \gamma^2 \gamma^3=\begin{pmatrix}0&amp;amp;0&amp;amp;1&amp;amp;0 \\0&amp;amp;0&amp;amp;0&amp;amp;1 \\1&amp;amp;0&amp;amp;0&amp;amp;0 \\0&amp;amp;1&amp;amp;0&amp;amp;0\end{pmatrix}\)" style="text;html=1;align=center;verticalAlign=middle;resizable=0;points=[];autosize=1;strokeColor=none;fillColor=none;" vertex="1" parent="1">
          <mxGeometry x="-530" y="430" width="760" height="30" as="geometry" />
        </mxCell>
        <mxCell id="nOmz34Z4Xu-gI0Pr4fBR-158" value="real gamma matrices:" style="text;html=1;align=center;verticalAlign=middle;resizable=0;points=[];autosize=1;strokeColor=none;fillColor=none;" vertex="1" parent="1">
          <mxGeometry x="-180" y="-92" width="140" height="30" as="geometry" />
        </mxCell>
        <mxCell id="nOmz34Z4Xu-gI0Pr4fBR-159" value=" Lorentz factor \( \gamma= \frac{1}{\sqrt{1 - \frac{v^2}{c^2}}} \)" style="text;html=1;align=center;verticalAlign=middle;resizable=0;points=[];autosize=1;strokeColor=none;fillColor=none;" vertex="1" parent="1">
          <mxGeometry x="740" y="120" width="350" height="30" as="geometry" />
        </mxCell>
        <mxCell id="nOmz34Z4Xu-gI0Pr4fBR-160" value="&lt;div&gt;\(\beta = \frac{v}{c}\)&lt;/div&gt;" style="text;html=1;align=center;verticalAlign=middle;resizable=0;points=[];autosize=1;strokeColor=none;fillColor=none;" vertex="1" parent="1">
          <mxGeometry x="845" y="178" width="130" height="30" as="geometry" />
        </mxCell>
      </root>
    </mxGraphModel>
  </diagram>
</mxfile>
